<svg width="24" height="28" viewBox="0 0 990 990" fill="none" xmlns="http://www.w3.org/2000/svg">
<path d="M544.498 445.502C570.532 471.537 612.743 471.537 638.778 445.502C664.813 419.467 664.813 377.257 638.778 351.222C612.743 325.187 570.532 325.187 544.498 351.222C518.463 377.257 518.463 419.467 544.498 445.502Z" fill="white"/>
<path d="M40.0947 605.78C33.0236 598.709 30.6666 591.638 25.9526 582.21C18.8815 560.997 25.9525 539.783 42.4517 523.284L127.305 438.431C157.946 407.79 190.944 393.648 223.942 393.648L320.58 391.291C344.151 363.007 372.435 334.722 400.719 306.438C584.567 122.59 758.987 202.729 768.415 207.443L777.843 212.157L782.557 221.585C784.914 228.656 869.767 403.076 683.562 589.281C655.278 617.565 626.993 645.849 598.709 669.42L596.352 766.058C596.352 799.056 582.21 832.054 551.569 862.695L466.716 947.548C450.217 964.047 431.36 968.761 412.504 964.047C391.291 956.976 377.149 942.834 372.435 919.264L358.293 820.269L275.797 836.768L155.589 716.56L169.731 636.421L70.736 622.279C58.9509 619.922 47.1658 612.851 40.0947 605.78ZM226.299 692.99L294.653 761.343L334.723 754.272L233.371 652.92L226.299 692.99ZM728.345 261.655C692.99 249.87 577.496 223.942 450.217 351.222C419.575 381.863 391.291 414.861 365.364 445.502L353.579 457.288L223.942 459.645C205.086 459.645 190.944 469.073 174.445 485.572L101.377 558.64L198.015 570.425C205.086 572.782 209.8 572.782 212.157 575.139C233.371 577.496 259.298 584.567 278.154 603.423L386.577 711.846C407.79 733.059 412.504 761.343 417.218 784.914L419.575 791.985L433.717 886.266L504.428 815.555C520.927 799.056 527.998 782.557 530.355 766.058L532.712 636.421L544.498 624.636C575.139 598.709 608.137 570.425 638.778 539.783C766.058 412.504 740.13 297.01 728.345 261.655Z" fill="white"/>
</svg>
